<?xml version="1.0" encoding="utf-8"?>
<!-- Generator: Adobe Illustrator 15.1.0, SVG Export Plug-In . SVG Version: 6.00 Build 0)  -->
<!DOCTYPE svg PUBLIC "-//W3C//DTD SVG 1.1//EN" "http://www.w3.org/Graphics/SVG/1.1/DTD/svg11.dtd">
<svg version="1.1" id="Layer_1" xmlns="http://www.w3.org/2000/svg" xmlns:xlink="http://www.w3.org/1999/xlink" x="0px" y="0px"
	 width="200px" height="88px" viewBox="0 0 200 88" enable-background="new 0 0 200 88" xml:space="preserve">
<g>
	<path fill="#FFFFFF" d="M168.387,17.531c0.469,3.419-2.275,6.624-6.14,7.155c-3.856,0.531-7.366-1.809-7.841-5.231
		c-0.471-3.419,2.277-6.623,6.137-7.158C164.402,11.768,167.914,14.11,168.387,17.531z"/>
</g>
<path fill="#FFFFFF" d="M148.195,27.209l-19.172,2.635c0,4.876,0,15.787,0,21.987c-3.114,0.381-6.234,0.7-9.359,0.954
	c0-5.945,0-15.989,0-21.654l-6.676,0.917V21.803l34.386-6.674c-0.136-1.376-0.267-2.754-0.429-4.117
	c-30.119-6.059-62.733-6.059-92.854,0c-0.882,7.35-1.335,14.916-1.397,22.494l11.101-2.155V19.75
	c3.103-0.492,6.212-0.923,9.328-1.289V29.54l11.08-2.149v-9.964c3.126-0.219,6.256-0.374,9.388-0.466v36.507
	c-3.131-0.093-6.262-0.247-9.388-0.466V39.4v-3.393l-11.08,1.522v1.626v12.81c-3.116-0.365-6.225-0.798-9.328-1.289V38.813
	l-11.051,1.519c0.156,6.434,0.598,12.837,1.347,19.085c30.12,6.06,62.734,6.06,92.854,0
	C148.204,48.922,148.607,37.996,148.195,27.209z M98.59,53.455c0-5.256,0-13.067,0-19.25l9.395-1.409c0,6.576,0,14.868,0,20.546
	C104.854,53.443,101.721,53.482,98.59,53.455z"/>
<g>
	<path fill="#FFFFFF" d="M6.78,77.84H2.796v3.542H1v-8.438h1.796v3.314H6.78v-3.314h1.809v8.438H6.78V77.84z"/>
	<path fill="#FFFFFF" d="M16.147,72.805c2.555,0,4.415,1.822,4.415,4.364c0,2.543-1.859,4.364-4.415,4.364
		c-2.542,0-4.402-1.821-4.402-4.364C11.745,74.627,13.604,72.805,16.147,72.805z M16.147,74.398c-1.556,0-2.555,1.188-2.555,2.771
		c0,1.567,0.999,2.771,2.555,2.771s2.568-1.201,2.568-2.771C18.715,75.588,17.703,74.398,16.147,74.398z"/>
	<path fill="#FFFFFF" d="M31.067,75.475l-2.378,5.907h-0.785l-2.378-5.907v5.907H23.73v-8.438h2.518l2.049,5.099l2.049-5.099h2.53
		v8.438h-1.809V75.475z"/>
	<path fill="#FFFFFF" d="M36.45,72.943h5.97v1.582h-4.174v1.783h4.086v1.582h-4.086V79.8h4.174v1.582h-5.97V72.943z"/>
	<path fill="#FFFFFF" d="M45.727,72.943h1.796v8.438h-1.796V72.943z"/>
	<path fill="#FFFFFF" d="M52.888,75.879v5.503h-1.796v-8.438h1.847l3.909,5.301v-5.301h1.796v8.438h-1.733L52.888,75.879z"/>
	<path fill="#FFFFFF" d="M61.319,72.943h2.049l2.34,6.49l2.328-6.49h2.049l-3.251,8.438h-2.252L61.319,72.943z"/>
	<path fill="#FFFFFF" d="M72.772,72.943h5.97v1.582h-4.174v1.783h4.086v1.582h-4.086V79.8h4.174v1.582h-5.97V72.943z"/>
	<path fill="#FFFFFF" d="M82.454,78.826c0.594,0.619,1.518,1.139,2.682,1.139c0.986,0,1.467-0.455,1.467-0.938
		c0-0.618-0.785-0.797-1.708-1.023c-1.378-0.316-3.149-0.695-3.149-2.617c0-1.404,1.214-2.568,3.2-2.568
		c1.341,0,2.454,0.404,3.289,1.177l-1,1.315c-0.683-0.634-1.594-0.924-2.454-0.924c-0.771,0-1.202,0.342-1.202,0.848
		c0,0.543,0.771,0.722,1.683,0.937c1.391,0.329,3.162,0.746,3.162,2.656c0,1.543-1.101,2.707-3.377,2.707
		c-1.619,0-2.783-0.544-3.567-1.341L82.454,78.826z"/>
	<path fill="#FFFFFF" d="M93.4,74.525h-2.467v-1.582h6.729v1.582h-2.454v6.855H93.4V74.525z"/>
	<path fill="#FFFFFF" d="M104.411,72.805c2.555,0,4.413,1.822,4.413,4.364c0,2.543-1.858,4.364-4.413,4.364
		c-2.544,0-4.403-1.821-4.403-4.364C100.008,74.627,101.867,72.805,104.411,72.805z M104.411,74.398
		c-1.558,0-2.556,1.188-2.556,2.771c0,1.567,0.998,2.771,2.556,2.771c1.555,0,2.565-1.201,2.565-2.771
		C106.979,75.588,105.966,74.398,104.411,74.398z"/>
	<path fill="#FFFFFF" d="M115.105,78.384h-1.315v2.998h-1.797v-8.438h3.946c1.759,0,2.834,1.152,2.834,2.721
		c0,1.492-0.937,2.289-1.848,2.505l1.897,3.213h-2.062L115.105,78.384z M115.675,74.525h-1.885v2.276h1.885
		c0.722,0,1.265-0.431,1.265-1.139S116.396,74.525,115.675,74.525z"/>
	<path fill="#FFFFFF" d="M123.852,74.525h-2.468v-1.582h6.729v1.582h-2.453v6.855h-1.811v-6.855H123.852z"/>
	<path fill="#FFFFFF" d="M134.859,72.805c2.557,0,4.416,1.822,4.416,4.364c0,2.543-1.859,4.364-4.416,4.364
		c-2.541,0-4.4-1.821-4.4-4.364C130.459,74.627,132.318,72.805,134.859,72.805z M134.859,74.398c-1.555,0-2.555,1.188-2.555,2.771
		c0,1.567,1,2.771,2.555,2.771c1.558,0,2.568-1.201,2.568-2.771C137.43,75.588,136.417,74.398,134.859,74.398z"/>
	<path fill="#FFFFFF" d="M146.441,72.805c2.556,0,4.414,1.822,4.414,4.364c0,2.543-1.858,4.364-4.414,4.364
		c-2.543,0-4.401-1.821-4.401-4.364C142.04,74.627,143.898,72.805,146.441,72.805z M146.441,74.398
		c-1.557,0-2.555,1.188-2.555,2.771c0,1.567,0.998,2.771,2.555,2.771c1.556,0,2.567-1.201,2.567-2.771
		C149.01,75.588,147.997,74.398,146.441,74.398z"/>
	<path fill="#FFFFFF" d="M154.023,72.943h1.797V79.8h3.566v1.582h-5.363V72.943z"/>
	<path fill="#FFFFFF" d="M163.326,79.473c0.557,0,1.025,0.467,1.025,1.023c0,0.556-0.47,1.023-1.025,1.023
		c-0.557,0-1.024-0.468-1.024-1.023C162.302,79.939,162.771,79.473,163.326,79.473z"/>
	<path fill="#FFFFFF" d="M167.275,77.169c0-2.593,1.961-4.364,4.49-4.364c1.859,0,2.936,1.014,3.529,2.062l-1.543,0.759
		c-0.354-0.683-1.113-1.228-1.986-1.228c-1.529,0-2.644,1.177-2.644,2.771c0,1.595,1.112,2.771,2.644,2.771
		c0.873,0,1.633-0.53,1.986-1.228l1.543,0.747c-0.607,1.05-1.67,2.074-3.529,2.074C169.236,81.533,167.275,79.764,167.275,77.169z"
		/>
	<path fill="#FFFFFF" d="M182.271,72.805c2.555,0,4.414,1.822,4.414,4.364c0,2.543-1.859,4.364-4.414,4.364
		c-2.543,0-4.402-1.821-4.402-4.364C177.868,74.627,179.729,72.805,182.271,72.805z M182.271,74.398
		c-1.557,0-2.556,1.188-2.556,2.771c0,1.567,0.999,2.771,2.556,2.771c1.556,0,2.566-1.201,2.566-2.771
		C184.838,75.588,183.826,74.398,182.271,74.398z"/>
	<path fill="#FFFFFF" d="M197.189,75.475l-2.377,5.907h-0.785l-2.377-5.907v5.907h-1.797v-8.438h2.518l2.05,5.099l2.05-5.099H199
		v8.438h-1.811V75.475z"/>
</g>
</svg>
